<?xml version="1.0" encoding="utf-8"?>
<!-- Generator: Adobe Illustrator 16.0.0, SVG Export Plug-In . SVG Version: 6.00 Build 0)  -->
<!DOCTYPE svg PUBLIC "-//W3C//DTD SVG 1.1//EN" "http://www.w3.org/Graphics/SVG/1.1/DTD/svg11.dtd">
<svg version="1.1" id="图层_1" xmlns="http://www.w3.org/2000/svg" xmlns:xlink="http://www.w3.org/1999/xlink" x="0px" y="0px"
	 width="220px" height="80px" viewBox="0 0 220 80" enable-background="new 0 0 220 80" xml:space="preserve">
<g>
	<path d="M12.589,66.146c-0.359-0.361-0.504-0.506-0.719-0.506l-0.793-0.143l-0.359-0.576C8.269,59.52,7.046,53.399,7.406,47.639
		c-0.072-0.289-0.215-0.504-0.287-0.793c-0.145-0.359-0.289-0.791-0.432-0.936l-0.434-0.576l0.145-0.721
		c0.936-3.456,0.648-7.128,0.289-10.728c-0.145-1.44-0.289-3.024-0.289-4.537c-0.072-1.008,0.217-1.944,0.432-2.736
		c0.145-0.576,0.361-1.224,0.361-1.728c0-0.721-0.217-1.513-0.361-2.232c-0.215-0.72-0.432-1.512-0.432-2.305
		c-0.072-0.575-0.072-1.151,0.432-1.728c0.145-0.145,0.289-0.288,0.432-0.36c0-0.504-0.143-1.152-0.287-1.8
		c-0.359-1.44-0.863-3.385,0.217-5.112l0.502-0.937l1.01,0.216c1.512,0.288,3.672,0.937,5.039,1.729l0.432,0.144l0.217,0.505
		c1.873,4.608,1.584,9.721,1.297,15.553c-0.145,3.889-0.361,7.849,0,12.169c0.072,0.145,0.215,0.576,0.359,0.936
		c0.145,0.505,0.287,1.009,0.359,1.585c0.361,2.447,0.289,4.752,0.217,7.057c-0.072,2.664-0.072,5.256,0.504,7.633
		c4.824-1.44,12.672-3.385,18.938-3.385c2.232,0,4.248,0.288,5.76,0.721l0.936,0.359v1.008c0.072,0.145,0.289,0.504,0.434,0.721
		c0.359,0.504,0.719,1.008,0.863,1.584c0.217,0.72,0.072,1.44-0.287,2.017c0,0.504-0.072,1.152-0.504,1.656
		c-0.434,0.432-1.01,0.721-1.656,0.721c-0.289,0-0.289,0.359-0.289,0.359l-1.584-0.145c-0.287,0-0.504-0.072-0.721-0.143
		l-0.432,0.07c-0.145,0-0.287,0-0.359,0c-0.648,0-1.08-0.215-1.369-0.359c-0.072,0-0.072,0-0.072,0.072c0,0-0.504,0.359-1.08,0.648
		c-0.504-0.289-1.08-0.865-1.08-0.865c-0.07,0-0.07,0-0.07,0c-0.434,0.217-1.08,0.434-1.873,0.434c-0.287,0-0.504,0-0.721-0.072
		c-0.359,0.359-0.936,0.719-1.727,0.719c-0.289,0-0.576-0.07-0.938-0.143c-4.967,2.447-7.703,2.951-14.545,3.6H14.39l-0.359-0.145
		C13.31,67.082,12.878,66.578,12.589,66.146z"/>
	<path fill="#040000" stroke="#000000" stroke-miterlimit="10" d="M51.685,64.849c-0.072-0.072-0.217-0.289-0.289-0.504
		c-0.504-0.217-0.791-0.648-0.936-0.865c-0.072-0.07-0.072-0.143-0.145-0.215c-0.791-0.865-1.439-1.584-1.512-2.592
		c-0.072-0.938,0.217-1.946,0.648-3.313c-0.072-0.072-0.072-0.217-0.145-0.288c-0.359-0.433-0.863-1.152-0.863-2.089
		c0.072-1.871,0.504-3.888,0.863-5.688c0.289-1.369,0.504-2.449,0.648-3.602c0.145-1.295,0.145-2.591,0.145-4.176
		c0-1.368,0-2.808,0.145-4.176c0.07-0.792,0.359-1.44,0.646-2.017c0.361-0.647,0.504-0.864,0.072-1.728l-0.432-0.792l0.648-0.721
		c0.936-1.008,2.016-1.584,3.24-1.584c1.152,0,2.232,0.504,3.24,1.008c0.432,0.217,0.791,0.36,1.225,0.504l0.719,0.288l0.145,0.721
		c1.08,4.608,0.504,9.864-0.072,14.761c-0.504,4.536-1.008,8.856-0.215,12.313l0.07,0.36l-0.07,0.359
		c-0.721,2.16-2.16,3.816-4.537,4.896l-0.072,0.072c-0.359,0.145-0.721,0.217-1.08,0.217C52.837,66.001,52.117,65.57,51.685,64.849z
		"/>
	<path fill="#901D22" d="M52.91,23.661l-0.576-0.071l-0.361-0.433c-2.303-2.664-3.168-5.473-2.592-8.28l0.145-0.864l0.863-0.288
		c0.938-0.288,1.584-0.937,1.945-1.872c0,0,0.143-0.792,0.719-1.008c0.576-0.145,1.369,0.287,1.369,0.287
		c0.215,0.072,0.359,0.217,0.576,0.288c0.576,0.433,0.791,0.505,1.08,0.505c0.215,0,0.432,0,0.719-0.072l0.289-0.072h0.217
		c1.727,0.145,2.016,1.513,2.16,2.017c0,0.071,0.07,0.144,0.07,0.144l0.721,0.216l0.217,0.864c0.576,2.448,0.072,4.824-1.297,6.553
		c-0.863,1.008-2.377,2.16-5.041,2.16C53.701,23.733,53.341,23.733,52.91,23.661z"/>
	<path d="M86.212,62.257c-0.359-1.729-0.287-3.602-0.287-5.474c0.072-2.736,0.215-5.545-1.152-6.049l-0.793-0.359l-0.145-0.793
		c-0.07-0.72-0.287-1.367-0.574-2.088c-0.434-1.08-0.938-2.376-0.648-4.104l0.143-0.648l0.648-0.359
		c0.217-0.072,0.504-0.359,0.793-0.648c0.215-0.216,0.504-0.504,0.863-0.791c0.072-3.241,0.217-6.409,0.361-9.505
		c0.143-2.881,0.287-5.977,0.359-9.073c0-0.504,0-0.937-0.072-1.44c-0.145-1.656-0.287-3.6,1.152-5.185
		c-0.145-1.151,0.072-2.016,0.287-2.808c0.145-0.721,0.361-1.368,0.361-2.305c0,0,0-1.296,0-1.8
		c0.072-0.504,0.648-0.072,0.648-0.072l1.223,0.504l0.361,0.145c1.223,0.504,1.871,0.792,2.879,0.864l0.865,0.071l0.359,0.721
		c0.863,1.8,1.729,3.6,1.512,5.688c-0.143,1.728-0.432,3.6-0.791,5.473c-0.648,3.384-1.225,6.912-0.865,10.225
		c0.072,0.576,0.217,1.296,0.434,2.016c0.143,0.288,0.215,0.648,0.359,1.009c1.439-1.009,2.951-2.521,4.248-4.249l0.145-0.216
		l0.215-0.072c3.602-2.376,6.697-5.472,9.648-8.424c3.168-3.024,6.338-6.193,10.01-8.497l0.576-0.36l0.576,0.145
		c3.383,0.936,4.824,1.943,5.184,3.456c0.432,1.729-1.08,3.096-2.881,4.681c-0.936,0.792-1.871,1.728-2.807,2.808
		c0,0.36-0.072,0.864-0.576,1.296c-1.152,1.152-2.16,2.089-3.313,2.809c-1.512,1.225-2.809,2.232-3.816,3.673l-0.359,0.647h-0.506
		c-0.07,0-0.359-0.144-0.432-0.144c0,0.071,0,0.432,0,0.432l-0.215,0.36l-0.217,0.216c-1.729,1.44-3.313,2.592-4.824,3.816
		c-2.592,1.944-5.184,3.888-7.488,6.192c0.721,0.36,1.367,0.792,1.943,1.224c1.225,0.793,2.521,1.513,3.816,1.944
		c0.361,0.144,0.576,0.36,0.793,0.505c0.359-0.072,0.648-0.145,0.936-0.145c1.152,0,1.656,0.72,1.871,1.08
		c6.697,2.52,14.906,6.192,19.803,11.81l0.504,0.504l-0.217,0.721c-0.576,2.088-2.303,3.313-4.32,3.313
		c-0.719,0-1.439-0.145-2.088-0.504l-0.072,0.432l-1.656-1.08c-0.143-0.145-0.432-0.289-0.646-0.432
		c-0.361-0.217-0.793-0.434-1.152-0.793c-0.145,0.072-0.432,0.145-0.938,0.145h-0.646l-0.434-0.432
		c-0.863-0.865-1.799-1.369-2.879-1.873c-1.225-0.577-2.449-1.225-3.602-2.377c-0.07,0-0.143,0-0.143,0
		c-0.648,0-1.152-0.216-1.584-0.36c-0.072,0-0.289-0.072-0.361-0.144l-0.863,0.288L105.15,57c0,0-0.145,0-0.287,0
		c-0.072,0-0.145,0-0.217,0s-0.215,0-0.287,0c-0.504,0-1.225,0-2.018-0.144c-1.295-0.36-2.52-1.225-3.744-2.16
		c-1.008-0.721-2.016-1.44-2.879-1.801c0.719,2.881,0.504,6.769-0.793,11.595l-0.145,0.432l-0.287,0.215
		c-0.072,0.145-0.359,0.361-0.721,0.504c0,0,0.289,0.576-0.145,0.793c-0.215,0.072-1.223-0.072-1.223-0.072
		c-0.504,0-0.793,0-1.08-0.072c-0.072,0-0.145,0-0.217,0c0,0-0.072,0.072-0.217,0.145l-0.574,0.359l-0.648-0.215
		C87.869,65.929,86.716,64.417,86.212,62.257z"/>
	<path d="M164.062,66.001c-0.576-0.072-1.152-0.145-1.801-0.145c-0.072,0-0.072,0-0.145,0c0,0-0.936,0-1.512-0.217
		c-0.359-0.359-0.072-1.08-0.072-1.08c-0.576-0.359-1.584-0.863-1.871-2.016l-0.072-0.215v-0.145c0.072-2.089,0-3.89-0.217-5.546
		c-0.215,0.217-0.432,0.433-0.648,0.576c-0.863,0.937-1.799,1.656-2.016,2.592l-0.145,0.577l-0.576,0.289
		c-0.863,0.504-1.727,1.15-2.664,1.799c-2.088,1.729-4.535,3.529-8.137,3.529c-1.15,0-2.303-0.145-3.527-0.504
		c-1.152-0.289-2.088-1.008-2.809-1.656c-0.217-0.217-0.432-0.361-0.576-0.432l-0.287-0.289l-0.217-0.359
		c-4.896-10.082-5.041-19.443-4.607-30.748v-0.72l0.574-0.36c0.217-0.071,0.361-0.863,0.434-1.296
		c0.143-0.72,0.287-1.584,0.648-2.232l0.359-0.432l0.648-0.144c0.359-0.072,0.791-0.072,1.152-0.072c2.23,0,4.607,1.152,6.264,3.456
		l0.504,0.576l-0.287,0.576c-0.289,0.647-0.217,0.792-0.145,1.152c0.145,0.432,0.359,1.08,0.215,1.943
		c-0.07,0.576-0.359,1.08-0.646,1.513c-0.072,0.216-0.217,0.432-0.217,0.576c-0.072,0.216-0.072,0.216,0.072,0.576
		c0.215,0.432,0.576,0.863,0.504,2.016c0,1.008-0.576,1.512-0.863,1.729c-0.072,0-0.072,0.072-0.072,0.072
		c-0.072,0.359,0.143,1.871,0.215,2.808c0.072,0.432,0.072,0.936,0.145,1.08c0.145,1.944,0.504,4.465,0.721,5.4l0.143,0.145v0.647
		c0.072,1.584,0.793,3.384,1.729,5.544c9.289-5.472,13.105-13.753,12.529-26.354l-0.072-0.936l0.865-0.433
		c0.863-0.432,1.727-0.647,2.592-0.647c1.801,0,3.24,0.936,4.465,1.728c0.143,0.072,0.215,0.145,0.359,0.216l0.432,0.288
		l0.145,0.433c1.367,3.888,0.936,7.272,0.576,10.368c-0.217,1.801-0.432,3.456-0.217,5.257c0.145,1.152,0.145,2.016,0.217,3.168
		c0.145,1.512,0.215,2.736,0.432,3.961c0.217,1.367,0.648,2.736,1.152,4.248c0.648,1.8,1.297,3.89,1.512,5.978l0.072,0.648
		l-0.432,0.504c-1.152,0.936-2.377,1.08-3.24,1.08C165.142,66.074,164.566,66.001,164.062,66.001z"/>
	<path d="M176.802,62.472l-0.145-0.215v-1.369c-0.287-10.226-0.504-19.227-1.08-31.395c0,0-0.07-1.009,0.072-1.44
		c0.648-0.144,1.441,0,1.441,0c0.215-0.36,0.576-0.576,1.15-0.72l0.506-0.145l0.504,0.216c0.432,0.217,0.863,0.288,1.223,0.36
		c1.008,0.288,2.16,0.576,3.098,2.16l0.287,0.433l-0.072,0.504c-0.359,2.304-0.215,4.392,0.145,7.057
		c0.287-1.225,0.721-2.521,1.656-3.169c0.287-1.8,1.367-3.023,2.232-3.816c0.504-0.575,1.008-1.151,1.295-1.872l0.217-0.647
		l0.721-0.216c0.646-0.145,1.223-0.36,1.871-0.505c1.297-0.504,2.736-1.08,4.682-1.151h0.287l0.359,0.144
		c0.865,0.433,1.873,0.648,3.025,1.008c2.375,0.648,4.896,1.44,6.48,3.097l0.145,0.144l0.143,0.217
		c2.664,6.192,4.393,11.232,5.33,16.057c1.295,6.337,1.223,11.81-0.289,16.779l-0.145,0.504l-0.432,0.287
		c-0.504,0.359-1.008,0.504-1.656,0.504c-0.287,0-0.504,0-0.721,0h-0.07c-0.217,0.072-0.504,0.145-0.793,0.145
		c-1.08,0-1.801-0.793-2.377-1.439c-0.215-0.217-0.646-0.721-0.791-0.793l-1.297-0.145l0.072-1.08v-0.791
		c0.217-5.905,0.361-13.251-1.656-18.65c-1.225-3.24-4.031-6.841-5.832-6.841c-0.576,0-1.225,0.432-1.801,1.296
		s-1.08,2.232-1.656,3.744c-0.432,1.08-0.863,2.305-1.295,3.24c-1.152,2.089-2.16,4.536-3.025,7.2
		c-0.215,0.648-0.646,0.793-1.008,0.865c-0.791,2.16-0.863,4.248-1.008,6.48c-0.072,2.304-0.217,4.681-1.297,7.128l-0.143,0.361
		l-0.432,0.145c-0.793,0.504-1.586,0.719-2.449,0.719C180.187,66.865,178.242,65.425,176.802,62.472z"/>
</g>
</svg>
